<?xml version="1.0" encoding="utf-8"?>
<svg version="1.1" xmlns="http://www.w3.org/2000/svg" x="0px" y="0px"
	 viewBox="0 0 30 30" style="enable-background:new 0 0 30 30;" xml:space="preserve">
<defs>
  <style type="text/css">
    .st0{fill:#131921;}
    .st1{fill:#febd69;}
    .st2{fill:#f59e0b;}
  </style>
</defs>
<g>
  <!-- Background circle -->
  <circle class="st1" cx="15" cy="15" r="14"/>
  <!-- Gear icon -->
  <g transform="translate(15,15)">
    <!-- Outer gear teeth -->
    <path class="st0" d="M1.5-8.5h3l0.5,1.8c0.4,0.2,0.8,0.4,1.2,0.6l1.7-0.9l2.1,2.1l-0.9,1.7c0.2,0.4,0.4,0.8,0.6,1.2l1.8,0.5v3l-1.8,0.5c-0.2,0.4-0.4,0.8-0.6,1.2l0.9,1.7l-2.1,2.1l-1.7-0.9c-0.4,0.2-0.8,0.4-1.2,0.6L4.5,7h-3L1,5.2c-0.4-0.2-0.8-0.4-1.2-0.6l-1.7,0.9l-2.1-2.1l0.9-1.7c-0.2-0.4-0.4-0.8-0.6-1.2L-5.5,0v-3l1.8-0.5c0.2-0.4,0.4-0.8,0.6-1.2l-0.9-1.7l2.1-2.1l1.7,0.9c0.4-0.2,0.8-0.4,1.2-0.6L1.5-8.5z" transform="scale(0.85)"/>
    <!-- Inner circle -->
    <circle class="st0" cx="0" cy="0" r="2.5"/>
  </g>
</g>
</svg>
